<?xml version="1.0"?>
<svg width="1200" height="1320" xmlns="http://www.w3.org/2000/svg" xmlns:svg="http://www.w3.org/2000/svg" preserveAspectRatio="xMidYMid meet" version="1.0">
 <g class="layer">
  <title>Layer 1</title>
  <g fill="#000000" id="svg_1" transform="matrix(0.1 0 0 -0.1 0 0)">
   <path d="m221.67,-102c-69,-25 -123,-76 -150,-142c-13,-31 -15,-770 -15,-6013l0,-5978l24,-50c28,-60 56,-87 116,-114c44,-20 60,-21 1124,-21l1079,0l-7,37c-4,21 -10,130 -12,243l-5,205l-915,3l-914,2l0,5675l0,5675l2565,0l2565,0l0,-1678c0,-1847 -4,-1737 62,-1816c17,-21 54,-49 82,-62l51,-24l1693,0l1692,0l0,-1685l0,-1685l245,0l245,0l0,1838c0,1788 -1,1838 -20,1879c-14,32 -483,506 -1835,1858c-1527,1527 -1825,1820 -1868,1841l-52,24l-2860,-1c-2010,0 -2869,-4 -2890,-11zm7325,-2203l1365,-1365l-1373,0l-1372,0l0,1365c0,751 3,1365 8,1365c4,0 621,-614 1372,-1365z" fill="#0cc0df" id="svg_2"/>
   <path d="m2674.67,-2241l-3,-242l-130,-32c-284,-70 -475,-187 -618,-380c-160,-213 -225,-474 -214,-848c6,-209 23,-305 74,-439c67,-171 233,-353 400,-437c123,-62 348,-126 658,-186c447,-88 583,-137 712,-258c110,-103 151,-227 140,-422c-10,-167 -60,-291 -156,-385c-102,-99 -252,-158 -458,-181c-417,-45 -757,74 -1049,366c-80,81 -114,108 -120,99c-5,-7 -92,-113 -193,-235l-185,-223l75,-69c203,-191 407,-320 638,-404c95,-34 354,-108 401,-115l25,-3l3,-227l2,-228l285,0l285,0l0,238l0,238l98,19c364,67 619,216 772,451c226,346 241,978 33,1333c-47,80 -178,220 -255,272c-137,94 -366,179 -653,244c-378,86 -584,145 -665,192c-138,80 -215,167 -252,287c-18,56 -22,94 -22,181c2,329 164,520 499,586c106,21 360,18 465,-5c167,-36 317,-97 470,-190c51,-32 98,-55 104,-53c10,4 68,83 334,449c11,15 6,22 -50,58c-104,67 -376,196 -493,234c-108,35 -243,67 -337,81l-48,6l0,235l0,234l-285,0l-285,0l-2,-241z" fill="#0cc0df" id="svg_3"/>
   <path d="m9336.67,-8016c-876,-25 -1579,-181 -1942,-432c-65,-45 -147,-129 -190,-196c-68,-106 -71,-124 -76,-474c-3,-288 -5,-313 -20,-309c-9,3 -66,24 -125,47c-285,107 -728,192 -1212,232c-238,19 -890,16 -1125,-6c-1037,-96 -1643,-345 -1760,-725c-19,-61 -20,-98 -20,-1235c0,-1281 -2,-1229 58,-1340c57,-106 185,-219 342,-304c318,-171 887,-297 1525,-339c184,-12 800,-9 980,6c682,53 1243,195 1541,389l61,40l44,-30c24,-17 97,-57 163,-89c648,-316 1978,-421 3041,-238c662,114 1080,317 1212,587l38,77l3,1769c3,1964 7,1820 -63,1936c-37,60 -144,168 -215,217c-205,139 -570,260 -1005,333c-371,62 -865,95 -1255,84zm381,-494c443,-16 818,-64 1131,-144c226,-58 460,-157 515,-218c16,-18 15,-20 -12,-43c-49,-40 -193,-111 -305,-150c-534,-186 -1468,-256 -2255,-170c-292,33 -619,99 -821,168c-110,38 -261,112 -309,152l-30,25l34,30c70,60 254,140 446,193c300,84 716,141 1145,157c107,4 197,7 200,8c3,1 120,-3 261,-8zm-2039,-971c305,-122 701,-207 1193,-256c257,-25 1012,-25 1266,0c515,51 947,147 1237,274c9,4 12,-53 12,-265l0,-270l-35,-31c-81,-71 -295,-158 -540,-219c-423,-106 -1026,-157 -1570,-133c-148,7 -290,15 -315,17c-445,46 -726,100 -961,184c-160,57 -297,130 -336,178c-10,12 -13,83 -13,279c0,145 2,263 5,263c2,0 28,-10 57,-21zm-2072,-149c469,-26 851,-90 1168,-196c121,-41 261,-109 312,-152l34,-29l-44,-33c-101,-74 -363,-174 -590,-224c-206,-46 -317,-62 -675,-100c-22,-3 -160,-10 -306,-17c-210,-9 -323,-9 -530,0c-145,7 -282,14 -304,17c-351,37 -470,55 -675,100c-234,52 -513,160 -600,232l-34,29l44,32c334,244 1287,391 2200,341zm-1940,-1053c420,-127 935,-190 1565,-190c594,-1 1072,51 1491,163c117,31 329,102 377,127l27,14l0,-270l0,-269l-37,-33c-180,-162 -753,-304 -1403,-349c-187,-13 -704,-13 -890,0c-411,29 -774,91 -1055,180c-135,43 -293,119 -343,165l-42,37l0,268l0,268l98,-38c53,-21 149,-54 212,-73zm4062,68c764,-302 2241,-350 3223,-104c124,31 291,85 371,119c25,11 50,20 55,20c5,0 9,-113 9,-270l0,-270l-42,-31c-229,-167 -773,-298 -1411,-340c-263,-17 -859,-7 -1102,20c-556,61 -1020,192 -1181,334l-34,29l0,264c0,191 3,264 11,264c7,0 52,-16 101,-35zm-4267,-1115c265,-105 674,-190 1135,-237c252,-26 1038,-26 1290,0c512,52 929,145 1228,274c9,4 12,-53 12,-265l0,-271l-37,-30c-187,-154 -676,-282 -1293,-337c-243,-22 -818,-25 -1055,-6c-635,53 -1157,185 -1348,343l-37,30l0,271c0,212 3,269 13,265c6,-3 48,-20 92,-37zm4248,5c285,-112 673,-193 1147,-242c222,-22 1023,-26 1245,-5c321,30 606,76 845,137c116,29 330,97 397,126l43,18l0,-269c0,-309 9,-280 -105,-347c-371,-218 -1280,-349 -2115,-303c-667,37 -1189,150 -1458,317c-39,24 -77,53 -82,63c-8,16 -16,540 -7,540c1,0 42,-16 90,-35z" fill="#0cc0df" id="svg_4"/>
  </g>
  <rect fill="#ffffff" height="86.67" id="svg_5" stroke="#ffffff" stroke-width="5" width="143.33" x="235" y="160"/>
  <rect fill="#ffffff" height="86.67" id="svg_6" stroke="#ffffff" stroke-width="5" width="143.33" x="230" y="665"/>
 </g>
</svg>