<?xml version="1.0"?>
<svg width="73" height="100" xmlns="http://www.w3.org/2000/svg" xmlns:svg="http://www.w3.org/2000/svg" enable-background="new -249 151 100 100" version="1.1" xml:space="preserve">
 <g class="layer">
  <title>Layer 1</title>
  <g id="svg_1">
   <path d="m67.62,0l-62.2,0c-2.7,0 -5,2.2 -5,5l0,90c0,2.7 2.2,5 5,5l62.2,0c2.7,0 5,-2.2 5,-5l0,-90c0,-2.8 -2.3,-5 -5,-5zm-0.6,94.5l-61.1,0l0,-88.9l61.1,0l0,88.9z" fill="#0cc0df" id="svg_2"/>
   <path d="m28.62,87.2c0,1.8 1.5,3.4 3.4,3.4l10.3,0c2,0 3.4,-1.5 3.4,-3.4s-1.5,-3.4 -3.4,-3.4l-10.3,0c-1.8,0 -3.4,1.5 -3.4,3.4z" fill="#0cc0df" id="svg_3"/>
   <path d="m26.72,13.7l11.8,0c1.5,0 2.8,-1.2 2.8,-2.8s-1.2,-2.8 -2.8,-2.8l-11.8,0c-1.5,0 -2.8,1.2 -2.8,2.8s1.3,2.8 2.8,2.8z" fill="#0cc0df" id="svg_4"/>
   <circle cx="48.22" cy="10.9" fill="#0cc0df" id="svg_5" r="3.2"/>
  </g>
 </g>
</svg>