<?xml version="1.0" encoding="utf-8"?>
<!-- Generator: Adobe Illustrator 19.0.0, SVG Export Plug-In . SVG Version: 6.00 Build 0)  -->
<svg version="1.1" id="Layer_1" xmlns="http://www.w3.org/2000/svg" xmlns:xlink="http://www.w3.org/1999/xlink" x="0px" y="0px"
	 width="100px" height="100px" viewBox="-249 151 100 100" style="enable-background:new -249 151 100 100;" xml:space="preserve">
<g>
	<path d="M-167.8,151H-230c-2.7,0-5,2.2-5,5v90c0,2.7,2.2,5,5,5h62.2c2.7,0,5-2.2,5-5v-90C-162.8,153.2-165.1,151-167.8,151z
		 M-168.4,245.5h-61.1v-88.9h61.1V245.5z"/>
	<path d="M-206.8,238.2c0,1.8,1.5,3.4,3.4,3.4h10.3c2,0,3.4-1.5,3.4-3.4s-1.5-3.4-3.4-3.4h-10.3
		C-205.2,234.8-206.8,236.3-206.8,238.2z"/>
	<path d="M-208.7,164.7h11.8c1.5,0,2.8-1.2,2.8-2.8s-1.2-2.8-2.8-2.8h-11.8c-1.5,0-2.8,1.2-2.8,2.8S-210.2,164.7-208.7,164.7z"/>
	<circle cx="-187.2" cy="161.9" r="3.2"/>
</g>
</svg>
